<svg xmlns="http://www.w3.org/2000/svg" xmlns:xlink="http://www.w3.org/1999/xlink" width="86" height="95" viewBox="0 0 86 95">
  <defs>
    <style>
        @font-face {
            font-family: Sofia Pro Regular;
            src: url(/assets/fonts/Sofia-Pro-Regular.ttf);
        }
      .cls-1 {
        fill: url(#linear-gradient);
      }

      .cls-2, .cls-3 {
        fill: #fff;
      }

      .cls-3 {
        font-size: 16px;
        font-family: Sofia Pro Regular;
      }

      .cls-4 {
        filter: url(#Ellipse_17);
      }
    </style>
    <linearGradient id="linear-gradient" x1="0.21" y1="2.519" x2="0.95" y2="0.5" gradientUnits="objectBoundingBox">
      <stop offset="0" stop-color="#fff"/>
      <stop offset="1" stop-color="#101010"/>
    </linearGradient>
    <filter id="Ellipse_17" x="0" y="0" width="86" height="86" filterUnits="userSpaceOnUse">
      <feOffset dy="3" input="SourceAlpha"/>
      <feGaussianBlur stdDeviation="3" result="blur"/>
      <feFlood flood-opacity="0.161"/>
      <feComposite operator="in" in2="blur"/>
      <feComposite in="SourceGraphic"/>
    </filter>
  </defs>
  <g id="Reset_2" transform="translate(9 6)">
    <g id="Group_41" data-name="Group 41" transform="translate(-430 -1044)">
      <g class="cls-4" transform="matrix(1, 0, 0, 1, 421, 1038)">
        <circle id="Ellipse_17-2" data-name="Ellipse 17" class="cls-1" cx="34" cy="34" r="34" transform="translate(9 6)"/>
      </g>
    </g>
    <path id="Icon_material-settings-backup-restore" data-name="Icon material-settings-backup-restore" class="cls-2" d="M21,18a3,3,0,1,0-3,3A3.009,3.009,0,0,0,21,18ZM18,4.5A13.5,13.5,0,0,0,4.5,18H0l6,6,6-6H7.5a10.507,10.507,0,1,1,4.41,8.55L9.78,28.71A13.5,13.5,0,1,0,18,4.5Z" transform="translate(16 16.5)"/>
    <text id="RESET" class="cls-3" transform="translate(11 85)"><tspan x="0" y="0">RESET</tspan></text>
  </g>
</svg>
